<svg width="125" height="288" viewBox="0 0 125 288" fill="none" xmlns="http://www.w3.org/2000/svg">
<g filter="url(#filter0_d)">
<path d="M10 130.5C10 104.266 31.2665 83 57.5 83C83.7335 83 105 104.266 105 130.5V220.5C105 246.734 83.7335 268 57.5 268C31.2665 268 10 246.734 10 220.5V130.5Z" fill="white"/>
<path d="M10.5 130.5C10.5 104.543 31.5426 83.5 57.5 83.5C83.4574 83.5 104.5 104.543 104.5 130.5V220.5C104.5 246.457 83.4574 267.5 57.5 267.5C31.5426 267.5 10.5 246.457 10.5 220.5V130.5Z" stroke="white" stroke-opacity="0.1"/>
<path d="M85.2097 85.2097C88.456 88.456 93.7911 88.4884 96.4226 84.7266C100.177 79.3598 102.798 73.249 104.087 66.7668C105.92 57.5527 104.979 48.002 101.384 39.3225C97.7891 30.643 91.7009 23.2246 83.8896 18.0052C76.0782 12.7858 66.8946 10 57.5 10C48.1054 10 38.9217 12.7858 31.1104 18.0052C23.2991 23.2246 17.2109 30.643 13.6157 39.3225C10.0206 48.002 9.07989 57.5527 10.9127 66.7668C12.2021 73.249 14.8234 79.3598 18.5774 84.7266C21.2088 88.4884 26.544 88.456 29.7902 85.2097C33.0365 81.9635 32.9132 76.731 30.6474 72.7383C29.0281 69.8848 27.8652 66.776 27.2182 63.5234C26.0269 57.5342 26.6384 51.3263 28.9752 45.6846C31.3121 40.043 35.2694 35.221 40.3468 31.8284C45.4241 28.4358 51.3935 26.625 57.5 26.625C63.6065 26.625 69.5759 28.4358 74.6532 31.8284C79.7306 35.221 83.6879 40.043 86.0248 45.6847C88.3616 51.3263 88.9731 57.5343 87.7817 63.5234C87.1348 66.776 85.9718 69.8848 84.3526 72.7383C82.0868 76.731 81.9635 81.9635 85.2097 85.2097Z" fill="white"/>
<path d="M96.0128 84.44C93.5946 87.8971 88.6349 87.9278 85.5633 84.8562C82.5279 81.8208 82.5918 76.8542 84.7874 72.985C86.4329 70.0854 87.6147 66.9263 88.2721 63.621C89.4827 57.5348 88.8614 51.2263 86.4867 45.4933C84.112 39.7603 80.0906 34.8602 74.931 31.4126C69.7714 27.9651 63.7054 26.125 57.5 26.125C51.2946 26.125 45.2286 27.9651 40.069 31.4126C34.9094 34.8602 30.888 39.7603 28.5133 45.4933C26.1386 51.2263 25.5172 57.5348 26.7279 63.621C27.3853 66.9263 28.5671 70.0854 30.2126 72.985C32.4082 76.8542 32.4721 81.8208 29.4367 84.8562C26.365 87.9278 21.4054 87.8971 18.9871 84.44C15.2726 79.1297 12.6789 73.0832 11.4031 66.6692C9.58958 57.5521 10.5203 48.102 14.0777 39.5139C17.635 30.9258 23.6591 23.5854 31.3882 18.4209C39.1173 13.2565 48.2043 10.5 57.5 10.5C66.7957 10.5 75.8827 13.2565 83.6118 18.4209C91.3409 23.5854 97.365 30.9258 100.922 39.5139C104.48 48.102 105.41 57.5521 103.597 66.6692C102.321 73.0832 99.7274 79.1297 96.0128 84.44Z" stroke="white" stroke-opacity="0.1"/>
</g>
<defs>
<filter id="filter0_d" x="-3.05176e-05" y="0" width="125" height="288" filterUnits="userSpaceOnUse" color-interpolation-filters="sRGB">
<feFlood flood-opacity="0" result="BackgroundImageFix"/>
<feColorMatrix in="SourceAlpha" type="matrix" values="0 0 0 0 0 0 0 0 0 0 0 0 0 0 0 0 0 0 127 0"/>
<feOffset dx="5" dy="5"/>
<feGaussianBlur stdDeviation="7.5"/>
<feColorMatrix type="matrix" values="0 0 0 0 0 0 0 0 0 0 0 0 0 0 0 0 0 0 0.25 0"/>
<feBlend mode="normal" in2="BackgroundImageFix" result="effect1_dropShadow"/>
<feBlend mode="normal" in="SourceGraphic" in2="effect1_dropShadow" result="shape"/>
</filter>
</defs>
</svg>
