<svg width="95" height="271" viewBox="0 0 95 271" fill="none" xmlns="http://www.w3.org/2000/svg">
<rect y="86" width="95" height="185" rx="3" fill="#232323"/>
<path d="M81.0876 81.0876C87.7306 74.4446 92.2545 65.9809 94.0873 56.7668C95.9201 47.5527 94.9794 38.002 91.3843 29.3225C87.7891 20.643 81.7009 13.2246 73.8896 8.00519C66.0783 2.78583 56.8946 4.29292e-07 47.5 0C38.1054 -4.29292e-07 28.9218 2.78583 21.1104 8.00519C13.2991 13.2246 7.21089 20.643 3.61572 29.3225C0.0205602 38.002 -0.920099 47.5527 0.912699 56.7668C2.7455 65.9809 7.26943 74.4446 13.9124 81.0876L39.1031 55.8969C37.4424 54.2361 36.3114 52.1202 35.8532 49.8167C35.395 47.5132 35.6301 45.1255 36.5289 42.9556C37.4277 40.7858 38.9498 38.9311 40.9026 37.6263C42.8554 36.3215 45.1513 35.625 47.5 35.625C49.8487 35.625 52.1446 36.3215 54.0974 37.6263C56.0502 38.9311 57.5723 40.7858 58.4711 42.9556C59.3699 45.1255 59.605 47.5132 59.1468 49.8167C58.6886 52.1202 57.5576 54.2361 55.8969 55.8969L81.0876 81.0876Z" fill="#232323"/>
</svg>
