<svg width="95" height="258" viewBox="0 0 95 258" fill="none" xmlns="http://www.w3.org/2000/svg">
<rect x="0.5" y="73.5" width="94" height="184" rx="47" stroke="black"/>
<mask id="path-2-inside-1" fill="white">
<path d="M75.2097 75.2097C78.456 78.456 83.7911 78.4885 86.4226 74.7266C90.1766 69.3598 92.7979 63.249 94.0873 56.7668C95.9201 47.5527 94.9794 38.002 91.3843 29.3225C87.7891 20.643 81.7009 13.2246 73.8896 8.00519C66.0783 2.78583 56.8946 4.29292e-07 47.5 0C38.1054 -4.29292e-07 28.9218 2.78583 21.1104 8.00519C13.2991 13.2246 7.21089 20.643 3.61572 29.3225C0.0205602 38.002 -0.920099 47.5527 0.912699 56.7668C2.20209 63.249 4.8234 69.3598 8.57743 74.7266C11.2089 78.4884 16.544 78.456 19.7903 75.2097V75.2097C23.0365 71.9635 22.9132 66.731 20.6474 62.7383C19.0282 59.8848 17.8652 56.776 17.2183 53.5234C16.0269 47.5342 16.6384 41.3263 18.9752 35.6846C21.3121 30.043 25.2694 25.221 30.3468 21.8284C35.4241 18.4358 41.3935 16.625 47.5 16.625C53.6065 16.625 59.5759 18.4358 64.6532 21.8284C69.7306 25.221 73.6879 30.043 76.0248 35.6847C78.3616 41.3263 78.9731 47.5343 77.7817 53.5234C77.1348 56.776 75.9718 59.8848 74.3526 62.7383C72.0868 66.731 71.9635 71.9635 75.2097 75.2097V75.2097Z"/>
</mask>
<path d="M75.2097 75.2097C78.456 78.456 83.7911 78.4885 86.4226 74.7266C90.1766 69.3598 92.7979 63.249 94.0873 56.7668C95.9201 47.5527 94.9794 38.002 91.3843 29.3225C87.7891 20.643 81.7009 13.2246 73.8896 8.00519C66.0783 2.78583 56.8946 4.29292e-07 47.5 0C38.1054 -4.29292e-07 28.9218 2.78583 21.1104 8.00519C13.2991 13.2246 7.21089 20.643 3.61572 29.3225C0.0205602 38.002 -0.920099 47.5527 0.912699 56.7668C2.20209 63.249 4.8234 69.3598 8.57743 74.7266C11.2089 78.4884 16.544 78.456 19.7903 75.2097V75.2097C23.0365 71.9635 22.9132 66.731 20.6474 62.7383C19.0282 59.8848 17.8652 56.776 17.2183 53.5234C16.0269 47.5342 16.6384 41.3263 18.9752 35.6846C21.3121 30.043 25.2694 25.221 30.3468 21.8284C35.4241 18.4358 41.3935 16.625 47.5 16.625C53.6065 16.625 59.5759 18.4358 64.6532 21.8284C69.7306 25.221 73.6879 30.043 76.0248 35.6847C78.3616 41.3263 78.9731 47.5343 77.7817 53.5234C77.1348 56.776 75.9718 59.8848 74.3526 62.7383C72.0868 66.731 71.9635 71.9635 75.2097 75.2097V75.2097Z" stroke="black" stroke-width="2" mask="url(#path-2-inside-1)"/>
</svg>
