<svg width="319" height="319" viewBox="0 0 319 319" fill="none" xmlns="http://www.w3.org/2000/svg">
<rect width="319" height="319" fill="white"/>
<rect x="109" y="124" width="95" height="185" rx="3" fill="#232323"/>
<path d="M190.088 119.088C196.731 112.445 201.255 103.981 203.087 94.7668C204.92 85.5527 203.979 76.002 200.384 67.3225C196.789 58.643 190.701 51.2246 182.89 46.0052C175.078 40.7858 165.895 38 156.5 38C147.105 38 137.922 40.7858 130.11 46.0052C122.299 51.2246 116.211 58.643 112.616 67.3225C109.021 76.002 108.08 85.5527 109.913 94.7668C111.745 103.981 116.269 112.445 122.912 119.088L148.103 93.8969C146.442 92.2361 145.311 90.1202 144.853 87.8167C144.395 85.5132 144.63 83.1255 145.529 80.9556C146.428 78.7858 147.95 76.9311 149.903 75.6263C151.855 74.3215 154.151 73.625 156.5 73.625C158.849 73.625 161.145 74.3215 163.097 75.6263C165.05 76.9311 166.572 78.7858 167.471 80.9556C168.37 83.1255 168.605 85.5132 168.147 87.8167C167.689 90.1202 166.558 92.2361 164.897 93.8969L190.088 119.088Z" fill="#232323"/>
</svg>
